<svg width="331" height="262" viewBox="0 0 331 262" fill="none" xmlns="http://www.w3.org/2000/svg">
<path d="M139.958 0.439807C139.425 0.839801 134.625 1.77315 129.291 2.4398C123.825 3.23982 116.491 4.30647 112.758 4.97316C109.158 5.63982 102.491 6.83981 98.0912 7.50648C83.4245 10.0398 58.8912 18.3065 42.0912 26.4398C5.15786 44.3065 -11.9088 63.7732 9.15785 63.7732C14.4912 63.7732 33.4245 58.0398 60.0912 48.3065C65.5579 46.3065 72.4912 44.1732 75.4245 43.5065C78.3579 42.8398 82.8912 41.7731 85.4245 41.2398C87.9579 40.5732 93.4245 39.3732 97.4245 38.4398C101.425 37.5065 107.158 36.3065 110.091 35.6398C122.358 32.7065 132.625 31.5065 152.091 30.7065C179.158 29.3732 219.958 31.6398 233.425 35.1065C235.291 35.5065 239.425 36.5732 242.758 37.2398C267.291 42.7065 280.091 48.1732 291.825 58.0398C299.958 65.1065 302.758 70.7065 302.758 80.7065C302.758 101.64 278.491 121.507 237.425 134.173C225.158 137.907 203.958 143.64 196.758 144.973C192.358 145.907 186.358 147.107 183.291 147.773C180.225 148.44 173.825 149.373 168.891 149.907L159.825 150.84L160.891 139.64C161.291 133.507 162.358 127.107 162.891 125.373C163.558 123.64 164.091 115.24 164.091 106.706C163.958 84.8398 160.358 77.3732 148.358 74.9732C137.691 72.8398 133.425 85.5065 130.091 128.307C128.491 147.24 127.558 154.173 125.958 155.907C124.625 157.373 121.158 158.44 116.358 158.84C112.225 159.24 103.691 160.173 97.4245 160.973C91.1579 161.64 80.0912 162.973 72.7579 163.773C20.3579 169.907 8.75785 172.173 4.22451 177.507C2.89118 179.24 3.15785 179.907 5.95785 181.773C13.0245 186.44 40.8912 185.64 113.825 178.573C123.691 177.64 124.358 177.773 125.425 180.307C125.958 181.907 126.758 194.84 127.158 209.107C127.825 228.707 128.625 237.64 130.625 245.507C134.091 258.707 135.425 261.107 139.425 261.107C146.891 261.107 152.358 238.84 156.225 193.107C157.025 183.24 158.225 174.307 159.025 173.373C159.825 172.573 162.225 171.773 164.491 171.773C166.758 171.773 172.225 171.107 176.625 170.307C181.158 169.507 187.825 168.307 191.425 167.773C205.825 165.107 235.958 158.04 245.291 154.973C250.625 153.24 255.958 151.773 257.025 151.773C258.758 151.773 264.758 149.24 281.425 141.373C296.358 134.307 316.091 118.307 323.158 107.24C328.091 99.7732 330.758 89.1065 330.758 77.2398C330.758 67.3732 330.225 64.7065 326.891 57.5065C320.758 44.7065 309.958 34.9731 291.025 25.3732C282.491 20.9731 272.491 16.5732 268.758 15.3732C254.625 11.1065 243.291 8.03981 238.758 7.10648C229.825 5.37315 217.958 3.50648 208.091 2.30647C196.225 0.70647 141.158 -0.760175 139.958 0.439807Z" fill="black"/>
</svg>
