<svg width="1370" height="1376" viewBox="0 0 1370 1376" fill="none" xmlns="http://www.w3.org/2000/svg">
<path d="M638.267 0.7323C636.133 1.26562 630.133 1.79901 625.067 1.93231C620 1.93231 612.267 2.599 607.733 3.39899C603.333 4.06567 592.133 5.66565 582.933 6.7323C556 10.199 533.333 14.8657 506.267 22.199C501.2 23.6656 494.533 25.399 491.6 26.199C488.667 26.999 485.067 28.199 483.6 28.7323C482.133 29.2656 476.4 31.1323 470.933 32.7323C456.933 36.8657 429.467 46.8657 419.333 51.5323C414.667 53.6656 410.667 55.399 410.4 55.399C409.467 55.399 380.4 69.1323 364.933 76.999C331.867 93.6657 291.333 119.666 257.333 146.066C224.533 171.399 177.467 217.399 152.8 248.066C145.2 257.532 136.933 267.799 134.533 270.732C106.4 304.999 65.3333 376.199 46.6667 422.732C43.7333 430.066 40.5333 437.799 39.4667 440.066C38.5333 442.199 36.2667 448.199 34.4 453.399C32.6667 458.466 29.6 467.132 27.6 472.599C25.7333 478.066 23.6 484.866 22.9333 487.932C22.2667 490.999 21.2 495.532 20.4 498.066C17.4667 508.066 13.2 524.599 10.6667 536.066C9.2 542.599 7.46667 550.466 6.8 553.399C4.53333 562.732 1.46667 583.666 0.666667 594.866L0 605.799L5.86667 606.199C9.2 606.466 50.1333 606.599 96.8 606.332L181.733 605.932L181.333 598.999L180.933 592.066L99.8667 591.666L18.6667 591.399L19.6 582.999C20.1333 578.466 20.9333 572.866 21.6 570.732C22.2667 568.466 23.4667 562.466 24.2667 557.399C25.2 552.199 26.4 545.932 27.0667 543.399C27.6 540.866 30 530.599 32.4 520.732C37.8667 496.999 52.1333 453.666 60 436.466C61.6 432.999 62.9333 429.932 62.9333 429.532C62.9333 428.999 67.0667 420.199 83.3333 386.066C86.8 378.599 95.2 363.132 99.6 355.666C109.067 339.799 120 322.066 124 316.332C126.667 312.332 131.6 305.266 134.8 300.599C161.467 261.799 201.6 217.399 239.6 184.466C313.333 120.599 386.667 78.999 480.933 47.6656C501.067 40.999 528.533 33.9323 555.6 28.7323C560 27.9323 564.8 26.8657 566.267 26.599C567.733 26.199 572.8 25.2656 577.6 24.599C615.6 18.4656 632.133 17.399 684.267 17.399C741.333 17.399 760.8 18.999 804.933 27.2656C808.667 27.9323 814.933 29.1323 818.933 29.799C844.4 34.4656 880.667 44.7323 909.733 55.399C936 64.999 939.333 66.3323 952.133 72.3323C958.933 75.399 964.8 78.0657 965.067 78.0657C966.133 78.0657 999.6 94.8657 1011.6 101.399C1037.47 115.399 1080.27 144.199 1104.93 164.066C1155.73 204.866 1199.33 251.666 1237.07 305.666C1246.8 319.666 1272.4 361.266 1279.87 375.399C1286.53 387.932 1306.93 431.666 1306.93 433.399C1306.93 434.066 1308.93 439.399 1311.47 445.399C1327.6 483.132 1352.93 582.466 1348.4 589.932C1347.73 590.999 1323.2 591.532 1267.47 591.666L1187.6 592.066L1187.2 598.999C1186.93 602.866 1187.33 606.066 1187.87 606.066C1188.4 606.199 1228.53 606.199 1276.93 606.332C1354.13 606.332 1365.07 606.199 1366.13 604.332C1367.6 602.066 1364.93 582.199 1358.93 550.732C1354.67 528.332 1342.4 482.999 1335.6 464.466C1333.6 459.132 1331.73 453.532 1331.33 452.066C1331.07 450.599 1330.13 448.199 1329.6 446.732C1328.93 445.266 1326.27 438.599 1323.87 432.066C1299.87 369.132 1253.73 294.066 1203.07 235.399C1188.53 218.599 1144.67 175.666 1128.13 161.932C1095.2 134.732 1082 125.132 1045.6 101.799C1023.07 87.399 985.333 67.6656 959.467 56.599C952.267 53.5323 943.067 49.6656 939.2 47.9323C935.333 46.199 931.6 44.7323 930.933 44.7323C930.4 44.7323 925.333 42.999 920 40.8657C911.333 37.399 885.067 29.1323 866.267 24.0657C862.667 23.1323 853.6 20.599 846.267 18.599C838.933 16.599 830.267 14.599 826.933 13.9323C823.6 13.399 812.267 11.399 801.733 9.53235C782.4 6.06567 768 4.19897 743.6 1.79901C726.533 0.198975 643.467 -0.734375 638.267 0.7323Z" fill="#c0392b"/>
<path d="M674.267 48.3322C670.667 48.5989 657.067 49.3989 644.267 50.0656C631.467 50.8656 616.8 52.0656 611.6 52.7322C606.533 53.3989 597.2 54.5989 590.933 55.2656C572.8 57.5322 563.067 59.2656 549.6 62.7322C546.133 63.6656 540.8 64.7322 527.6 67.5322C523.2 68.4655 507.333 73.2656 492.267 78.0656C411.733 104.466 356.8 133.399 288.133 185.399C245.867 217.399 184 283.666 154.8 328.066C136 356.732 132.133 363.266 117.867 390.066C115.333 394.866 112.267 400.466 110.933 402.732C109.6 404.866 107.2 410.066 105.6 414.066C104 418.066 100.933 424.999 98.6666 429.399C96.5333 433.799 92.9333 441.799 90.7999 447.399C88.6666 452.866 86.2666 458.599 85.7333 460.066C83.3333 465.399 71.8666 500.466 68.1333 514.066C61.4666 537.799 57.1999 557.666 58.3999 559.532C59.3333 561.132 63.8666 561.132 64.9333 559.532C65.5999 558.332 70.5333 540.199 74.5333 524.066C76.9333 513.932 79.1999 506.466 83.3333 494.732C85.1999 489.532 88.1333 480.599 89.9999 474.732C92.9333 465.132 102.533 441.799 113.333 418.066C116.533 410.866 128.267 389.266 140.267 368.066C151.867 347.932 171.333 319.266 185.467 301.532C192.533 292.866 199.733 283.799 201.6 281.532C208.933 272.199 242.8 236.732 253.067 227.399C276.267 206.466 290.533 194.332 296.933 189.932C300.533 187.399 308.4 181.799 314.267 177.266C320.133 172.732 330.533 165.532 337.333 161.266C344.267 156.999 354.4 150.466 360 146.866C387.467 129.399 452.267 99.7989 487.333 88.7322C519.733 78.5989 531.867 75.2656 551.6 71.2656C579.6 65.7989 582 65.3989 620.267 60.4655C637.2 58.1989 733.733 58.1989 750.267 60.4655C781.467 64.5989 786.8 65.3989 803.6 68.7322C807.333 69.3989 818.133 71.3989 827.6 73.2656C837.2 74.9989 849.2 78.0656 854.267 79.9322C859.467 81.7989 866.933 84.1989 870.933 85.2656C909.467 95.6656 974.4 125.266 1017.6 152.066C1066.4 182.466 1105.2 214.599 1148.27 260.066C1159.6 271.932 1165.73 279.399 1186 305.132C1198.8 321.399 1224.67 359.266 1230.93 371.266C1233.6 376.066 1239.07 386.332 1243.2 394.066C1247.33 401.799 1253.47 414.332 1256.93 422.066C1260.27 429.799 1265.07 440.199 1267.47 445.399C1269.87 450.466 1272.93 458.066 1274.13 462.066C1275.47 466.066 1276.93 470.599 1277.6 472.066C1283.07 485.132 1292.8 515.932 1296.13 530.732C1303.2 560.999 1304.27 563.532 1309.33 560.866C1312 559.532 1312 559.399 1309.33 546.466C1305.33 526.332 1297.2 497.532 1291.6 483.399C1290.53 480.866 1287.87 472.732 1285.6 465.399C1283.2 458.066 1276.93 442.866 1271.47 431.666C1266 420.466 1261.6 410.866 1261.6 410.599C1261.6 407.799 1233.07 357.132 1221.2 338.732C1203.33 311.266 1197.73 303.532 1187.47 291.932C1183.2 286.999 1178.8 281.666 1177.73 280.199C1175.6 277.132 1155.47 254.599 1148.93 248.066C1146.8 245.799 1141.87 240.732 1138.13 236.732C1131.33 229.399 1126.4 224.732 1105.47 205.799C1092.13 193.666 1051.73 163.399 1032.93 151.399C1025.6 146.732 1015.47 140.199 1010.27 136.866C998.533 129.399 946.533 103.532 933.6 98.8656C928.4 96.9989 922.8 94.7322 921.333 93.9322C917.733 92.0656 899.733 85.5322 886.267 81.2656C880.4 79.3989 869.6 75.9322 862.267 73.5322C854.933 71.1322 845.333 68.3322 840.933 67.5322C826.267 64.4655 802.267 59.2656 794.933 57.3989C793.067 56.9989 786.267 56.0656 779.6 55.2656C773.067 54.5989 763.467 53.3989 758.267 52.7322C750 51.5322 731.867 50.3322 692.267 48.3322C686 48.0656 678 48.0656 674.267 48.3322Z" fill="#c0392b"/>
<path d="M385.467 556.066C384.933 556.466 380.133 557.399 374.8 558.066C369.333 558.866 362 559.932 358.267 560.599C354.667 561.266 348 562.466 343.6 563.132C328.933 565.666 304.4 573.932 287.6 582.066C250.667 599.932 233.6 619.399 254.667 619.399C260 619.399 278.933 613.666 305.6 603.932C311.067 601.932 318 599.799 320.933 599.132C323.867 598.466 328.4 597.399 330.933 596.866C333.467 596.199 338.933 594.999 342.933 594.066C346.933 593.132 352.667 591.932 355.6 591.266C367.867 588.332 378.133 587.132 397.6 586.332C424.667 584.999 465.467 587.266 478.933 590.732C480.8 591.132 484.933 592.199 488.267 592.866C512.8 598.332 525.6 603.799 537.333 613.666C545.467 620.732 548.267 626.332 548.267 636.332C548.267 657.266 524 677.132 482.933 689.799C470.667 693.532 449.467 699.266 442.267 700.599C437.867 701.532 431.867 702.732 428.8 703.399C425.733 704.066 419.333 704.999 414.4 705.532L405.333 706.466L406.4 695.266C406.8 689.132 407.867 682.732 408.4 680.999C409.067 679.266 409.6 670.866 409.6 662.332C409.467 640.466 405.867 632.999 393.867 630.599C383.2 628.466 378.933 641.132 375.6 683.932C374 702.866 373.067 709.799 371.467 711.532C370.133 712.999 366.667 714.066 361.867 714.466C357.733 714.866 349.2 715.799 342.933 716.599C336.667 717.266 325.6 718.599 318.267 719.399C265.867 725.532 254.267 727.799 249.733 733.132C248.4 734.866 248.667 735.532 251.467 737.399C258.533 742.066 286.4 741.266 359.333 734.199C369.2 733.266 369.867 733.399 370.933 735.932C371.467 737.532 372.267 750.466 372.667 764.732C373.333 784.332 374.133 793.266 376.133 801.132C379.6 814.332 380.933 816.732 384.933 816.732C392.4 816.732 397.867 794.466 401.733 748.732C402.533 738.866 403.733 729.932 404.533 728.999C405.333 728.199 407.733 727.399 410 727.399C412.267 727.399 417.733 726.732 422.133 725.932C426.667 725.132 433.333 723.932 436.933 723.399C451.333 720.732 481.467 713.666 490.8 710.599C496.133 708.866 501.467 707.399 502.533 707.399C504.267 707.399 510.267 704.866 526.933 696.999C541.867 689.932 561.6 673.932 568.667 662.866C573.6 655.399 576.267 644.732 576.267 632.866C576.267 622.999 575.733 620.332 572.4 613.132C566.267 600.332 555.467 590.599 536.533 580.999C528 576.599 518 572.199 514.267 570.999C500.133 566.732 488.8 563.666 484.267 562.732C475.333 560.999 463.467 559.132 453.6 557.932C441.733 556.332 386.667 554.866 385.467 556.066Z" fill="#c0392b"/>
<path d="M952.4 642.199C947.867 643.932 946.133 646.866 944.267 655.399C943.333 659.399 942 663.532 941.333 664.332C940.533 665.266 937.067 666.066 933.467 666.066C924.8 666.066 919.333 671.132 922.667 676.199C924.4 678.732 929.333 680.732 934 680.732C941.6 680.732 941.867 681.666 940.133 707.532C938.4 732.999 939.2 761.666 941.733 772.066C947.467 795.532 961.067 800.466 978.667 785.399C981.733 782.599 985.867 777.532 987.733 773.932C989.467 770.332 991.733 767.399 992.667 767.399C993.6 767.399 995.2 770.466 996.133 774.199C1001.73 795.932 1016.8 800.199 1032.93 784.599C1036.67 780.999 1041.6 774.199 1044.13 769.399C1046.67 764.599 1049.07 760.732 1049.6 760.732C1050 760.732 1052.53 762.866 1055.07 765.532C1062.8 773.532 1067.47 775.799 1078.13 776.199C1092.27 776.866 1096.8 775.132 1106.27 765.532C1116.8 754.999 1120.27 746.332 1120.27 730.999C1120.27 717.132 1116.4 705.532 1109.2 697.132C1101.6 688.599 1095.73 686.066 1083.87 686.066C1075.47 686.066 1073.33 686.599 1068.13 689.799C1058.27 696.066 1053.2 704.332 1044.93 727.799C1040.93 739.266 1028 764.866 1024.93 767.399C1023.87 768.199 1022.53 768.599 1021.73 768.199C1019.33 766.732 1018.8 748.199 1020.13 720.732C1022.27 679.399 1022.27 679.399 1033.87 679.399C1040.8 679.399 1045.6 676.199 1045.6 671.532C1045.6 668.199 1044 667.132 1034.27 664.732L1026.27 662.599L1025.6 655.266C1025.2 651.132 1024.13 646.866 1023.2 645.799C1018.27 639.799 1006 639.932 1001.33 646.066C1000 647.932 998.533 652.599 998 656.466C997.067 664.999 995.333 666.599 988.267 665.532C985.333 665.132 980.533 664.332 977.6 663.932L972.267 663.132V656.466C972.267 648.199 970.533 644.999 964.933 642.599C959.733 640.466 956.933 640.332 952.4 642.199ZM994.133 681.799C996 682.866 994 717.799 991.6 726.066C987.733 738.999 972.667 767.799 969.2 768.466C966.933 768.866 965.867 765.532 964.8 754.466C963.867 744.466 967.867 685.399 969.733 681.932C971.067 679.399 971.867 679.266 982 680.066C988 680.599 993.467 681.399 994.133 681.799ZM1087.6 702.066C1088.67 702.066 1090.8 705.532 1092.4 709.666C1096.27 719.532 1096.8 744.999 1093.33 752.999C1089.07 762.599 1080.53 760.199 1075.73 747.932C1069.2 731.132 1075.07 698.199 1084 701.399C1085.07 701.799 1086.67 702.066 1087.6 702.066Z" fill="#c0392b"/>
<path d="M820 647.266C808.4 649.666 799.067 660.066 801.067 668.466C803.067 676.732 810.4 680.732 823.6 680.732C837.733 680.732 852.267 671.666 852.267 662.999C852.267 657.932 849.2 652.332 844.8 649.399C840.667 646.732 827.733 645.666 820 647.266Z" fill="#c0392b"/>
<path d="M685.6 682.999C683.067 683.399 678.933 685.132 676.4 686.999C670.267 691.666 661.067 706.466 658.4 716.066C652 738.332 650.533 742.466 645.067 754.066C640.267 763.799 638.133 766.599 635.867 765.666C632 764.199 631.6 738.732 635.067 717.932C636.667 708.199 635.2 704.066 628.8 701.399C622.933 698.999 614.933 698.732 612 700.999C610.8 701.932 608.267 708.066 606.267 714.732C601.6 730.999 591.067 760.732 588.8 764.332C587.733 766.066 586 767.399 584.8 767.399C583.2 767.399 582.933 765.266 583.733 752.999C584.133 745.132 584.8 737.799 585.2 736.732C585.6 735.666 586.4 729.266 586.933 722.732C587.6 716.066 588.4 707.666 588.933 703.799C590.4 693.932 589.2 690.466 583.867 688.999C575.067 686.599 566.133 689.266 562.4 695.532C559.867 699.799 557.333 728.866 557.067 757.399C556.933 771.932 557.2 773.932 560.267 780.066C562.8 785.132 564.933 787.399 569.867 789.799C579.067 794.599 585.2 793.132 592.267 784.732C595.333 781.132 599.067 774.732 600.8 770.466C604.4 761.666 606.267 760.332 607.333 765.666C608.4 770.866 615.467 780.332 620.667 783.399C626.667 787.132 636 786.866 641.6 782.999C644 781.399 647.867 777.266 650.133 773.799C652.4 770.332 654.933 767.532 655.6 767.532C656.4 767.532 658.8 770.199 660.933 773.399C666 781.132 672.4 785.399 681.6 787.399C695.067 790.199 711.333 783.399 722.667 770.066C725.867 766.466 729.067 763.399 730 763.399C730.933 763.399 732.667 765.799 734.133 768.599C740.933 782.866 754.933 790.466 769.467 787.799C781.467 785.532 788.667 781.399 798.267 771.266C807.2 761.666 809.6 760.332 809.6 764.599C809.6 766.066 810.267 767.666 810.933 768.066C811.733 768.466 812.267 769.932 812.267 770.999C812.267 774.199 817.6 781.532 821.733 783.932C823.733 785.132 827.867 786.066 830.8 786.066C840.933 786.066 848.533 780.199 855.333 767.399C856.8 764.866 858.267 762.332 858.8 761.799C859.333 761.266 863.333 764.066 867.867 767.932C875.733 774.732 876.533 775.132 885.467 776.066C902.933 777.799 913.867 772.466 923.6 757.532C936.267 738.199 931.6 705.132 914.4 692.332C907.6 687.399 903.333 686.066 893.2 686.066C884.133 686.066 883.2 686.332 877.067 691.132C868.4 697.666 862.4 706.732 858.8 718.466C850.8 744.599 842.8 763.932 839.333 765.266C834.8 766.999 833.6 763.666 833.6 748.866C833.6 741.132 834.267 730.866 834.933 726.066C838.133 705.532 838.133 704.199 834.667 700.199C831.867 696.866 830.4 696.466 823.733 696.199C816.667 696.066 815.733 696.332 812.8 700.066C810.133 703.399 809.6 705.532 809.6 712.999C809.6 724.466 805.6 734.332 794.4 751.132C787.733 761.132 778.533 769.399 772.533 770.999C767.6 772.199 762.667 769.932 759.333 764.866C756.8 761.132 756.267 758.599 756.267 750.199C756.267 744.599 757.2 735.799 758.4 730.732C759.467 725.532 760.933 719.266 761.467 716.732C762.933 710.199 766.133 702.999 768.533 700.999C772.933 697.399 773.467 701.799 771.333 720.466C770.267 730.199 769.733 738.999 770.133 740.066C771.067 742.466 778.4 742.599 782.4 740.332C784 739.399 786.8 736.866 788.8 734.599C792 730.732 792.267 729.399 792.267 718.332C792.267 707.932 791.733 705.132 788.4 697.666C783.333 686.199 778.8 683.399 765.867 683.399H756.4L750 689.932C744 696.066 739.6 703.799 734.267 718.066C729.6 730.732 720.133 748.866 714.4 756.332C708.4 764.332 698 771.399 692.533 771.399C691.067 771.399 688 769.932 685.867 768.066C680.8 763.799 678 751.932 680.133 743.932C680.933 741.132 681.6 736.732 681.6 734.199C681.6 729.932 682.4 725.932 686 713.399C687.867 706.732 691.2 700.466 693.333 699.666C696.267 698.732 696.8 703.799 695.067 720.999C693.2 740.332 693.6 742.066 700.8 742.066C710.8 742.066 715.2 734.466 715.067 716.866C715.067 709.932 714.4 703.666 713.6 702.866C712.933 702.199 712.267 700.332 712.267 698.999C712.267 695.132 708 688.866 703.6 686.066C699.067 683.266 692.4 682.199 685.6 682.999ZM899.733 703.532C903.067 706.199 904.933 717.666 904.933 734.332C904.933 749.399 904.667 751.666 902.133 754.999C893.333 766.866 883.467 752.466 883.733 728.066C883.867 709.532 888 699.666 894.933 701.399C896.667 701.932 898.933 702.866 899.733 703.532Z" fill="#c0392b"/>
<path d="M0.799983 771.266C-0.13335 772.332 0.26665 783.666 1.59998 791.266C4.93332 810.866 12.8 850.999 13.6 853.399C14.1333 854.866 15.3333 859.399 16.2667 863.399C19.6 878.466 33.3333 919.532 43.8667 946.066C52.8 968.732 76.9333 1017 92 1042.07C110.8 1073.67 131.733 1103.53 152.133 1127.93C192.267 1175.8 246.133 1224.47 296.533 1258.47C330.8 1281.53 344.4 1289.4 380.933 1307.27C427.867 1330.2 465.867 1344.2 516.267 1357.13C534.133 1361.67 540 1362.87 580.933 1370.07C604.133 1374.07 628.933 1375.4 684.133 1375.4C738.933 1375.4 768 1373.93 787.6 1370.2C791.333 1369.4 798.133 1368.2 802.933 1367.4C807.733 1366.6 813.733 1365.4 816.267 1364.73C818.8 1364.07 824.533 1362.87 828.933 1361.93C837.467 1360.2 854.267 1356.07 871.067 1351.53C896.933 1344.6 937.867 1329.53 970.667 1314.87C1014.8 1295.13 1065.33 1265 1100.8 1237.4C1115.33 1226.07 1131.47 1212.87 1140.93 1204.47C1155.6 1191.53 1198.93 1147.53 1208.13 1136.33C1212.27 1131.27 1220.53 1121 1226.53 1113.53C1235.73 1102.47 1273.6 1047.13 1280.13 1035.53C1281.07 1033.67 1283.47 1029.53 1285.2 1026.2C1287.07 1022.87 1289.07 1019.4 1289.6 1018.73C1291.33 1016.47 1306.13 987.132 1310.13 978.066C1312.27 973.266 1315.6 965.799 1317.73 961.399C1329.6 935.266 1354 858.732 1358.93 832.066C1362 815.666 1364.27 802.866 1365.73 793.666C1366.67 788.066 1368 783.399 1368.53 783.399C1369.07 783.399 1369.6 780.732 1369.6 777.532C1369.6 772.599 1369.2 771.532 1366.67 770.999C1364.4 770.466 1259.47 770.732 1187.87 771.399C1187.33 771.399 1186.93 774.599 1187.2 778.332L1187.6 785.399L1268 785.799C1338 786.066 1348.4 786.332 1349.07 788.066C1350 790.332 1346.4 813.666 1343.6 824.066C1342.67 827.666 1339.87 839.132 1337.6 849.399C1333.73 866.066 1322 905.132 1318.93 912.066C1318.13 913.532 1315.2 921.666 1312.13 930.066C1309.2 938.466 1305.87 947.132 1304.93 949.399C1304 951.532 1301.6 957.266 1299.6 962.066C1291.33 981.666 1267.07 1026.87 1251.07 1052.07C1240 1069.4 1216.27 1101.67 1204.4 1115.4C1200.27 1120.2 1194.53 1127 1191.6 1130.73C1188.8 1134.33 1176.53 1147.53 1164.4 1159.8C1117.87 1207 1066.13 1246.2 1006.27 1279.27C977.067 1295.53 956.667 1304.6 912.933 1321C907.067 1323.13 901.067 1325.53 899.6 1326.2C898.133 1326.73 891.6 1328.87 884.933 1330.87C807.2 1353.53 762.267 1360.07 684.933 1360.07C615.467 1360.07 579.467 1355.67 515.867 1339.4C482.133 1330.73 474.8 1328.33 428.933 1310.73C392.267 1296.6 336 1266.07 299.067 1240.07C283.333 1229 251.867 1204.07 235.6 1189.67C194.8 1153.67 142.8 1092.33 115.067 1047.4C97.2 1018.47 73.8667 973.799 64.8 951.132C61.4667 942.866 58 934.199 57.0667 932.066C56 929.799 54.8 926.599 54.2667 924.732C53.8667 922.866 52.9333 920.199 52.1333 918.732C47.7333 909.266 33.4667 860.866 28.6667 839.399C27.6 834.599 26.1333 828.066 25.4667 824.732C23.8667 817.399 19.8667 796.999 18.6667 789.399C18.2667 786.732 19.2 786.732 99.6 786.066L180.933 785.399L181.333 778.332C181.6 774.599 181.2 771.399 180.667 771.399C170.4 770.999 1.19998 770.866 0.799983 771.266Z" fill="#c0392b"/>
<path d="M58.4 817.932C58 818.599 58.1334 821.666 58.8 824.866C61.8667 839.932 64.4 850.466 65.4667 852.466C66 853.666 67.0667 857.132 67.4667 860.066C68.5334 865.666 72.9334 880.866 74.9334 885.399C75.6 886.866 77.4667 891.932 78.9334 896.732C80.5334 901.532 82.4 906.599 82.9334 908.066C90.4001 927.132 94.9334 938.066 99.6001 948.199C102.8 954.866 105.6 961.399 106.133 962.866C107.067 965.932 119.2 988.999 130.267 1008.73C142.4 1030.6 165.6 1064.6 185.467 1089.4C212.533 1123.4 260.667 1170.73 292.267 1194.47C321.067 1216.07 327.2 1220.47 335.6 1225.4C340.4 1228.33 348.533 1233.4 353.333 1236.6C381.067 1254.87 452.8 1287.4 491.6 1299.27C496.8 1300.73 504.8 1303.27 509.6 1304.87C514.4 1306.33 520.933 1308.07 524.267 1308.73C527.6 1309.4 532.667 1310.47 535.6 1311.13C541.867 1312.73 566.4 1317.93 574.933 1319.53C580.667 1320.73 592.667 1322.33 613.6 1324.73C649.067 1329 690 1330.07 724.267 1327.53C749.867 1325.67 779.867 1322.2 793.6 1319.53C796.933 1318.87 802.933 1317.67 806.933 1316.87C810.933 1316.07 820 1314.2 826.933 1312.6C833.867 1311.13 841.067 1309.53 842.933 1309.13C861.6 1305.53 931.733 1280.47 956.267 1268.6C978.933 1257.67 1016.93 1236.2 1040.27 1221.27C1061.87 1207.4 1105.6 1171.67 1132.53 1145.93C1147.47 1131.8 1170.13 1106.47 1183.47 1089.4C1190.8 1079.8 1197.87 1070.87 1199.2 1069.4C1204.53 1063.13 1233.6 1019.13 1239.2 1008.73C1242.53 1002.47 1247.47 993.532 1250.27 988.732C1254.67 980.866 1261.47 966.999 1268.53 951.399C1270 948.066 1273.33 940.866 1275.87 935.399C1278.4 929.932 1281.6 922.066 1282.93 918.066C1284.27 914.066 1287.47 904.732 1290 897.399C1297.07 876.999 1302.27 859.132 1307.07 839.399C1312.4 816.599 1312.4 817.399 1307.73 817.399C1304.13 817.399 1303.73 817.932 1301.47 826.066C1300.13 830.866 1298 839.532 1296.8 845.399C1295.6 851.266 1292.8 861.399 1290.67 868.066C1288.67 874.599 1286.27 882.199 1285.47 884.732C1283.6 890.866 1276.4 910.066 1274.8 912.999C1274.13 914.332 1273.6 916.066 1273.6 916.866C1273.6 918.332 1268.13 931.132 1261.2 946.066C1259.73 949.399 1256.67 956.199 1254.27 961.399C1252 966.466 1248.67 973.399 1246.93 976.732C1237.07 995.666 1235.07 999.399 1231.07 1006.73C1222.67 1022.07 1193.73 1064.2 1178.93 1082.73C1150.4 1118.33 1103.87 1164.2 1071.47 1188.87C1048.13 1206.6 1045.07 1208.87 1034.13 1216.07C1020.13 1225.13 987.467 1244.33 975.6 1250.33C970.533 1253 960.933 1257.8 954.267 1261.13C928.933 1274.07 870.667 1294.6 838.933 1301.93C811.733 1308.33 782.667 1314.07 770.267 1315.4C762.933 1316.2 753.067 1317.4 748.267 1318.07C733.6 1320.2 675.733 1321 647.6 1319.4C608.267 1317.27 586.533 1314.87 570.933 1310.73C566.933 1309.67 555.6 1307.27 545.867 1305.53C536.267 1303.67 520.667 1299.8 511.2 1297C501.867 1294.07 493.067 1291.4 491.6 1291C475.867 1286.73 431.467 1269.27 414.933 1260.87C377.2 1241.53 367.467 1236.47 358.4 1230.6C300.8 1193.8 264.4 1164.33 226.133 1123.93C208.4 1105.13 188.8 1082.2 176.8 1066.07C168 1054.47 137.6 1007.27 137.6 1005.27C137.6 1004.87 134.267 998.732 130.133 991.666C119.6 973.399 109.067 951.266 98.2667 924.732C88.6667 900.866 72.4 849.666 67.6 827.666C66.5334 823.132 65.3334 818.732 64.9334 818.066C63.8667 816.466 59.3334 816.332 58.4 817.932Z" fill="#c0392b"/>
</svg>
